<svg width="78" height="42" viewBox="0 0 78 42" fill="none" xmlns="http://www.w3.org/2000/svg">
<path d="M6.588 38C6.452 37.64 6.324 37.288 6.204 36.944C6.084 36.592 5.96 36.236 5.832 35.876H2.064L1.308 38H0.096C0.416 37.12 0.716 36.308 0.996 35.564C1.276 34.812 1.548 34.1 1.812 33.428C2.084 32.756 2.352 32.116 2.616 31.508C2.88 30.892 3.156 30.284 3.444 29.684H4.512C4.8 30.284 5.076 30.892 5.34 31.508C5.604 32.116 5.868 32.756 6.132 33.428C6.404 34.1 6.68 34.812 6.96 35.564C7.24 36.308 7.54 37.12 7.86 38H6.588ZM5.496 34.916C5.24 34.22 4.984 33.548 4.728 32.9C4.48 32.244 4.22 31.616 3.948 31.016C3.668 31.616 3.4 32.244 3.144 32.9C2.896 33.548 2.648 34.22 2.4 34.916H5.496ZM19.9024 33.908H21.0664V37.796C20.9704 37.828 20.8304 37.864 20.6464 37.904C20.4704 37.944 20.2624 37.984 20.0224 38.024C19.7904 38.064 19.5344 38.096 19.2544 38.12C18.9744 38.152 18.6904 38.168 18.4024 38.168C17.8184 38.168 17.2864 38.072 16.8064 37.88C16.3264 37.688 15.9144 37.408 15.5704 37.04C15.2264 36.672 14.9584 36.22 14.7664 35.684C14.5824 35.148 14.4904 34.532 14.4904 33.836C14.4904 33.14 14.5944 32.524 14.8024 31.988C15.0184 31.444 15.3064 30.988 15.6664 30.62C16.0264 30.252 16.4464 29.972 16.9264 29.78C17.4144 29.588 17.9344 29.492 18.4864 29.492C18.8624 29.492 19.1944 29.516 19.4824 29.564C19.7784 29.612 20.0304 29.668 20.2384 29.732C20.4464 29.796 20.6144 29.86 20.7424 29.924C20.8784 29.988 20.9704 30.036 21.0184 30.068L20.6464 31.04C20.4144 30.888 20.1064 30.764 19.7224 30.668C19.3384 30.564 18.9464 30.512 18.5464 30.512C18.1224 30.512 17.7344 30.588 17.3824 30.74C17.0384 30.892 16.7424 31.112 16.4944 31.4C16.2544 31.688 16.0664 32.04 15.9304 32.456C15.7944 32.864 15.7264 33.324 15.7264 33.836C15.7264 34.332 15.7824 34.784 15.8944 35.192C16.0144 35.6 16.1904 35.952 16.4224 36.248C16.6624 36.536 16.9544 36.76 17.2984 36.92C17.6504 37.08 18.0624 37.16 18.5344 37.16C18.8704 37.16 19.1544 37.144 19.3864 37.112C19.6264 37.072 19.7984 37.036 19.9024 37.004V33.908ZM34.5049 38C34.3689 37.64 34.2409 37.288 34.1209 36.944C34.0009 36.592 33.8769 36.236 33.7489 35.876H29.9809L29.2249 38H28.0129C28.3329 37.12 28.6329 36.308 28.9129 35.564C29.1929 34.812 29.4649 34.1 29.7289 33.428C30.0009 32.756 30.2689 32.116 30.5329 31.508C30.7969 30.892 31.0729 30.284 31.3609 29.684H32.4289C32.7169 30.284 32.9929 30.892 33.2569 31.508C33.5209 32.116 33.7849 32.756 34.0489 33.428C34.3209 34.1 34.5969 34.812 34.8769 35.564C35.1569 36.308 35.4569 37.12 35.7769 38H34.5049ZM33.4129 34.916C33.1569 34.22 32.9009 33.548 32.6449 32.9C32.3969 32.244 32.1369 31.616 31.8649 31.016C31.5849 31.616 31.3169 32.244 31.0609 32.9C30.8129 33.548 30.5649 34.22 30.3169 34.916H33.4129ZM48.6659 38C48.4899 37.704 48.2859 37.372 48.0539 37.004C47.8299 36.636 47.5859 36.256 47.3219 35.864C47.0579 35.464 46.7819 35.06 46.4939 34.652C46.2139 34.244 45.9339 33.852 45.6539 33.476C45.3739 33.092 45.1019 32.732 44.8379 32.396C44.5739 32.06 44.3299 31.764 44.1059 31.508V38H42.9659V29.684H43.8899C44.2659 30.084 44.6659 30.552 45.0899 31.088C45.5219 31.616 45.9459 32.164 46.3619 32.732C46.7859 33.292 47.1819 33.844 47.5499 34.388C47.9259 34.932 48.2419 35.416 48.4979 35.84V29.684H49.6379V38H48.6659ZM61.3324 38.18C60.7484 38.18 60.2164 38.084 59.7364 37.892C59.2564 37.7 58.8444 37.42 58.5004 37.052C58.1564 36.684 57.8884 36.232 57.6964 35.696C57.5124 35.152 57.4204 34.532 57.4204 33.836C57.4204 33.14 57.5244 32.524 57.7324 31.988C57.9484 31.444 58.2364 30.988 58.5964 30.62C58.9564 30.252 59.3764 29.972 59.8564 29.78C60.3364 29.588 60.8484 29.492 61.3924 29.492C61.7364 29.492 62.0444 29.516 62.3164 29.564C62.5964 29.612 62.8364 29.668 63.0364 29.732C63.2444 29.796 63.4124 29.86 63.5404 29.924C63.6684 29.988 63.7564 30.036 63.8044 30.068L63.4684 31.028C63.3964 30.98 63.2924 30.928 63.1564 30.872C63.0204 30.816 62.8644 30.76 62.6884 30.704C62.5204 30.648 62.3324 30.604 62.1244 30.572C61.9244 30.532 61.7204 30.512 61.5124 30.512C61.0724 30.512 60.6764 30.588 60.3244 30.74C59.9724 30.892 59.6724 31.112 59.4244 31.4C59.1764 31.688 58.9844 32.04 58.8484 32.456C58.7204 32.864 58.6564 33.324 58.6564 33.836C58.6564 34.332 58.7124 34.784 58.8244 35.192C58.9444 35.6 59.1204 35.952 59.3524 36.248C59.5844 36.536 59.8724 36.76 60.2164 36.92C60.5684 37.08 60.9764 37.16 61.4404 37.16C61.9764 37.16 62.4204 37.104 62.7724 36.992C63.1244 36.88 63.3884 36.78 63.5644 36.692L63.8644 37.652C63.8084 37.692 63.7084 37.744 63.5644 37.808C63.4204 37.864 63.2404 37.92 63.0244 37.976C62.8084 38.032 62.5564 38.08 62.2684 38.12C61.9804 38.16 61.6684 38.18 61.3324 38.18ZM73.437 38V34.664C72.885 33.808 72.365 32.964 71.877 32.132C71.389 31.3 70.929 30.484 70.497 29.684H71.865C72.169 30.34 72.509 31.008 72.885 31.688C73.261 32.36 73.649 33.008 74.049 33.632C74.441 33.008 74.825 32.36 75.201 31.688C75.577 31.008 75.921 30.34 76.233 29.684H77.529C77.097 30.484 76.637 31.3 76.149 32.132C75.661 32.956 75.145 33.792 74.601 34.64V38H73.437Z" fill="white"/>
<path d="M5.38 18.62C5.82 18.62 6.18 18.5867 6.46 18.52C6.75333 18.44 6.98667 18.34 7.16 18.22C7.33333 18.0867 7.45333 17.9333 7.52 17.76C7.58667 17.5867 7.62 17.3933 7.62 17.18C7.62 16.7267 7.40667 16.3533 6.98 16.06C6.55333 15.7533 5.82 15.4267 4.78 15.08C4.32667 14.92 3.87333 14.74 3.42 14.54C2.96667 14.3267 2.56 14.0667 2.2 13.76C1.84 13.44 1.54667 13.06 1.32 12.62C1.09333 12.1667 0.98 11.62 0.98 10.98C0.98 10.34 1.1 9.76667 1.34 9.26C1.58 8.74 1.92 8.3 2.36 7.94C2.8 7.58 3.33333 7.30667 3.96 7.12C4.58667 6.92 5.29333 6.82 6.08 6.82C7.01333 6.82 7.82 6.92 8.5 7.12C9.18 7.32 9.74 7.54 10.18 7.78L9.28 10.24C8.89333 10.04 8.46 9.86667 7.98 9.72C7.51333 9.56 6.94667 9.48 6.28 9.48C5.53333 9.48 4.99333 9.58667 4.66 9.8C4.34 10 4.18 10.3133 4.18 10.74C4.18 10.9933 4.24 11.2067 4.36 11.38C4.48 11.5533 4.64667 11.7133 4.86 11.86C5.08667 11.9933 5.34 12.12 5.62 12.24C5.91333 12.3467 6.23333 12.46 6.58 12.58C7.3 12.8467 7.92667 13.1133 8.46 13.38C8.99333 13.6333 9.43333 13.9333 9.78 14.28C10.14 14.6267 10.4067 15.0333 10.58 15.5C10.7533 15.9667 10.84 16.5333 10.84 17.2C10.84 18.4933 10.3867 19.5 9.48 20.22C8.57333 20.9267 7.20667 21.28 5.38 21.28C4.76667 21.28 4.21333 21.24 3.72 21.16C3.22667 21.0933 2.78667 21.0067 2.4 20.9C2.02667 20.7933 1.7 20.68 1.42 20.56C1.15333 20.44 0.926667 20.3267 0.74 20.22L1.62 17.74C2.03333 17.9667 2.54 18.1733 3.14 18.36C3.75333 18.5333 4.5 18.62 5.38 18.62ZM17.4006 6.98C19.4673 6.98 21.054 7.34667 22.1606 8.08C23.2673 8.8 23.8206 9.98667 23.8206 11.64C23.8206 13.3067 23.2606 14.5133 22.1406 15.26C21.0206 15.9933 19.4206 16.36 17.3406 16.36H16.3606V21H13.2406V7.34C13.9206 7.20667 14.6406 7.11333 15.4006 7.06C16.1606 7.00667 16.8273 6.98 17.4006 6.98ZM17.6006 9.64C17.374 9.64 17.1473 9.64667 16.9206 9.66C16.7073 9.67333 16.5206 9.68667 16.3606 9.7V13.7H17.3406C18.4206 13.7 19.234 13.5533 19.7806 13.26C20.3273 12.9667 20.6006 12.42 20.6006 11.62C20.6006 11.2333 20.5273 10.9133 20.3806 10.66C20.2473 10.4067 20.0473 10.2067 19.7806 10.06C19.5273 9.9 19.214 9.79333 18.8406 9.74C18.4673 9.67333 18.054 9.64 17.6006 9.64ZM35.3717 18.32V21H26.1117V7.14H29.2317V18.32H35.3717ZM47.2863 21C47.1396 20.52 46.9729 20.0267 46.7863 19.52C46.6129 19.0133 46.4396 18.5067 46.2663 18H40.8663C40.6929 18.5067 40.5129 19.0133 40.3263 19.52C40.1529 20.0267 39.9929 20.52 39.8463 21H36.6063C37.1263 19.5067 37.6196 18.1267 38.0863 16.86C38.5529 15.5933 39.0063 14.4 39.4463 13.28C39.8996 12.16 40.3396 11.1 40.7663 10.1C41.2063 9.08667 41.6596 8.1 42.1263 7.14H45.1063C45.5596 8.1 46.0063 9.08667 46.4463 10.1C46.8863 11.1 47.3263 12.16 47.7663 13.28C48.2196 14.4 48.6796 15.5933 49.1463 16.86C49.6129 18.1267 50.1063 19.5067 50.6263 21H47.2863ZM43.5463 10.28C43.4796 10.48 43.3796 10.7533 43.2463 11.1C43.1129 11.4467 42.9596 11.8467 42.7863 12.3C42.6129 12.7533 42.4196 13.2533 42.2063 13.8C42.0063 14.3467 41.7996 14.92 41.5863 15.52H45.5263C45.3129 14.92 45.1063 14.3467 44.9063 13.8C44.7063 13.2533 44.5129 12.7533 44.3263 12.3C44.1529 11.8467 43.9996 11.4467 43.8663 11.1C43.7329 10.7533 43.6263 10.48 43.5463 10.28ZM56.5714 18.62C57.0114 18.62 57.3714 18.5867 57.6514 18.52C57.9447 18.44 58.1781 18.34 58.3514 18.22C58.5247 18.0867 58.6447 17.9333 58.7114 17.76C58.7781 17.5867 58.8114 17.3933 58.8114 17.18C58.8114 16.7267 58.5981 16.3533 58.1714 16.06C57.7447 15.7533 57.0114 15.4267 55.9714 15.08C55.5181 14.92 55.0647 14.74 54.6114 14.54C54.1581 14.3267 53.7514 14.0667 53.3914 13.76C53.0314 13.44 52.7381 13.06 52.5114 12.62C52.2847 12.1667 52.1714 11.62 52.1714 10.98C52.1714 10.34 52.2914 9.76667 52.5314 9.26C52.7714 8.74 53.1114 8.3 53.5514 7.94C53.9914 7.58 54.5247 7.30667 55.1514 7.12C55.7781 6.92 56.4847 6.82 57.2714 6.82C58.2047 6.82 59.0114 6.92 59.6914 7.12C60.3714 7.32 60.9314 7.54 61.3714 7.78L60.4714 10.24C60.0847 10.04 59.6514 9.86667 59.1714 9.72C58.7047 9.56 58.1381 9.48 57.4714 9.48C56.7247 9.48 56.1847 9.58667 55.8514 9.8C55.5314 10 55.3714 10.3133 55.3714 10.74C55.3714 10.9933 55.4314 11.2067 55.5514 11.38C55.6714 11.5533 55.8381 11.7133 56.0514 11.86C56.2781 11.9933 56.5314 12.12 56.8114 12.24C57.1047 12.3467 57.4247 12.46 57.7714 12.58C58.4914 12.8467 59.1181 13.1133 59.6514 13.38C60.1847 13.6333 60.6247 13.9333 60.9714 14.28C61.3314 14.6267 61.5981 15.0333 61.7714 15.5C61.9447 15.9667 62.0314 16.5333 62.0314 17.2C62.0314 18.4933 61.5781 19.5 60.6714 20.22C59.7647 20.9267 58.3981 21.28 56.5714 21.28C55.9581 21.28 55.4047 21.24 54.9114 21.16C54.4181 21.0933 53.9781 21.0067 53.5914 20.9C53.2181 20.7933 52.8914 20.68 52.6114 20.56C52.3447 20.44 52.1181 20.3267 51.9314 20.22L52.8114 17.74C53.2247 17.9667 53.7314 18.1733 54.3314 18.36C54.9447 18.5333 55.6914 18.62 56.5714 18.62ZM72.792 7.14H75.912V21H72.792V15.12H67.552V21H64.432V7.14H67.552V12.44H72.792V7.14Z" fill="white"/>
</svg>
